<?xml version="1.0" encoding="UTF-8"?>
<svg id="Layer_1" data-name="Layer 1" xmlns="http://www.w3.org/2000/svg" xmlns:xlink="http://www.w3.org/1999/xlink" viewBox="0 0 10.32 20.11">
  <defs>
    <style>
      .cls-1 {
        fill: url(#linear-gradient-2);
      }

      .cls-2 {
        fill: url(#linear-gradient-6);
      }

      .cls-3 {
        fill: url(#linear-gradient-5);
      }

      .cls-4 {
        fill: url(#linear-gradient-7);
      }

      .cls-5 {
        fill: url(#linear-gradient-9);
      }

      .cls-6 {
        fill: url(#linear-gradient-3);
      }

      .cls-7 {
        fill: url(#linear-gradient);
      }

      .cls-8 {
        fill: url(#linear-gradient-4);
      }

      .cls-9 {
        fill: url(#linear-gradient-8);
      }
    </style>
    <linearGradient id="linear-gradient" x1="12.76" y1="19.21" x2="12.2" y2="18.1" gradientTransform="translate(-12.74 -6.79) rotate(-3.26)" gradientUnits="userSpaceOnUse">
      <stop offset="0" stop-color="#0d4a83"/>
      <stop offset=".64" stop-color="#0392fe"/>
      <stop offset="1" stop-color="#0583e5"/>
      <stop offset="1" stop-color="#0092ff"/>
    </linearGradient>
    <linearGradient id="linear-gradient-2" x1="2.45" y1="10.35" x2="1.89" y2="9.25" gradientTransform="matrix(1, 0, 0, 1, 0, 0)" xlink:href="#linear-gradient"/>
    <linearGradient id="linear-gradient-3" x1="6.05" y1="19.64" x2="5.98" y2="-4.82" gradientUnits="userSpaceOnUse">
      <stop offset="0" stop-color="#0d4a83"/>
      <stop offset=".6" stop-color="#0092fe"/>
      <stop offset=".65" stop-color="#0192ff"/>
      <stop offset=".76" stop-color="#2890f3"/>
    </linearGradient>
    <linearGradient id="linear-gradient-4" x1="4.86" y1="24.49" x2="4.73" y2="-19.56" gradientTransform="translate(16.41 5.01) rotate(73.09)" xlink:href="#linear-gradient-3"/>
    <linearGradient id="linear-gradient-5" x1="4.88" y1="14.33" x2="4.88" y2="12.87" xlink:href="#linear-gradient-3"/>
    <linearGradient id="linear-gradient-6" x1="4.86" y1="24.49" x2="4.73" y2="-19.56" xlink:href="#linear-gradient-3"/>
    <linearGradient id="linear-gradient-7" x1="4.4" y1="19.65" x2="4.33" y2="-4.81" xlink:href="#linear-gradient-3"/>
    <linearGradient id="linear-gradient-8" x1="5.2" y1="24.49" x2="5.07" y2="-19.56" xlink:href="#linear-gradient-3"/>
    <linearGradient id="linear-gradient-9" x1="4.34" y1="24.49" x2="4.21" y2="-19.55" xlink:href="#linear-gradient-3"/>
  </defs>
  <path class="cls-7" d="M1.5,10.29c-.41,.42-.82,.83-1.23,1.25,.02,.3,.05,.61,.07,.91,.39-.4,.78-.8,1.17-1.2,0-.32,0-.63-.01-.95Z"/>
  <path class="cls-1" d="M2.94,9.01c-.43,.39-.87,.78-1.3,1.17,0,.3,.01,.61,.02,.91,.41-.38,.83-.76,1.24-1.14,.01-.32,.03-.63,.04-.95Z"/>
  <polygon class="cls-6" points="6.54 1.92 5.5 0 5.5 13.59 6.54 13.39 6.54 1.93 6.54 1.92"/>
  <rect class="cls-8" x="4.82" y="13.52" width="0" height=".11" transform="translate(-9.57 14.24) rotate(-73.09)"/>
  <polygon class="cls-3" points="4.88 13.6 4.88 13.6 4.88 13.6 4.88 13.6"/>
  <polygon class="cls-2" points="4.88 13.6 4.88 13.56 4.77 13.56 4.88 13.6"/>
  <polygon class="cls-4" points="4.88 13.6 4.88 0 3.84 1.92 3.84 13.42 3.84 13.42 4.88 13.6"/>
  <path class="cls-9" d="M9.19,13.77l.38-.38,.76-.76-3.26-3.26v3.67l.74,.74h.01s-.01,0-.01,0h.01s-.01,0-.01,0l-.35,.35-.91-.91-1.04,.36,1.04,1.04,.21,.21,.68,.68,.45,.45-.47,.47-2.03-2.03-.64,.64,2.03,2.03-.4,.4-2.03-2.03-.64,.64,2.03,2.03-.57,.57-2.69-2.69,.47-.47,1.94-1.94-.11-.03h0l-.93-.28-.9,.9-.42-.42,.74-.74v-3.67L0,12.6l2.26,2.26-.47,.47-.7,.7,3.37,3.37,.7,.7,.7-.7,.57-.57,.64-.64,.4-.4,.64-.64,.47-.47,.7-.7-1.16-1.16,.35-.35,.7-.7Zm-6.88-1.21l-.49,.49-.38-.38,.87-.87v.76Zm5.67,0v-.76l.9,.9-.38,.38-.52-.52Z"/>
  <polygon class="cls-5" points="4.77 13.56 3.84 13.28 4.77 13.56 4.77 13.56"/>
</svg>